<svg width="20" height="19" viewBox="0 0 20 19" fill="none" xmlns="http://www.w3.org/2000/svg">
<path d="M3.48265 8.328C4.42132 8.328 4.85865 7.89067 4.79465 7.016L4.63465 4.504C4.61332 4.06667 4.66665 3.67733 4.79465 3.336C4.92265 2.99467 5.11465 2.70667 5.37065 2.472C5.63732 2.22667 5.95199 2.04 6.31465 1.912C6.68799 1.784 7.10399 1.72 7.56265 1.72H8.65065V3.56H7.83465C7.45065 3.56 7.15199 3.65067 6.93865 3.832C6.72532 4.01333 6.62932 4.30133 6.65065 4.696L6.81065 7.208C6.84265 7.80533 6.66665 8.28 6.28265 8.632C5.90932 8.984 5.40799 9.17067 4.77865 9.192V9.272C5.41865 9.29333 5.92532 9.49067 6.29865 9.864C6.67199 10.2267 6.84265 10.7067 6.81065 11.304L6.65065 13.8C6.62932 14.152 6.72532 14.4293 6.93865 14.632C7.16265 14.824 7.46132 14.92 7.83465 14.92H8.65065V16.776H7.56265C7.11465 16.776 6.70399 16.7067 6.33065 16.568C5.95732 16.44 5.63732 16.2533 5.37065 16.008C5.11465 15.7627 4.91732 15.464 4.77865 15.112C4.65065 14.76 4.60265 14.3653 4.63465 13.928L4.79465 11.496C4.82665 11.0587 4.73599 10.728 4.52265 10.504C4.31999 10.28 3.97332 10.168 3.48265 10.168H1.57865V8.328H3.48265ZM11.4036 16.776V14.92H12.2196C12.6036 14.92 12.9023 14.8293 13.1156 14.648C13.3396 14.4667 13.4409 14.184 13.4196 13.8L13.2596 11.288C13.2169 10.6907 13.3823 10.216 13.7556 9.864C14.1396 9.512 14.6463 9.32533 15.2756 9.304V9.224C14.6356 9.20267 14.1289 9.01067 13.7556 8.648C13.3823 8.27467 13.2169 7.78933 13.2596 7.192L13.4196 4.696C13.4409 4.33333 13.3396 4.056 13.1156 3.864C12.8916 3.66133 12.5929 3.56 12.2196 3.56H11.4036V1.72H12.5076C12.9556 1.72 13.3609 1.78933 13.7236 1.928C14.0969 2.056 14.4116 2.24267 14.6676 2.488C14.9343 2.73333 15.1316 3.032 15.2596 3.384C15.3983 3.72533 15.4516 4.11467 15.4196 4.552L15.2596 7C15.2276 7.43733 15.3129 7.768 15.5156 7.992C15.7289 8.20533 16.0809 8.312 16.5716 8.312H18.4756V10.152H16.5716C15.6329 10.152 15.1956 10.5947 15.2596 11.48L15.4196 13.976C15.4409 14.4027 15.3876 14.7867 15.2596 15.128C15.1316 15.48 14.9396 15.7787 14.6836 16.024C14.4276 16.2693 14.1129 16.456 13.7396 16.584C13.3663 16.712 12.9556 16.776 12.5076 16.776H11.4036Z" fill="white" class="nostroke" />
</svg>
