<svg width="30" height="20" viewBox="0 0 30 20" fill="none" xmlns="http://www.w3.org/2000/svg">
<circle cx="14.5158" cy="10.0006" r="5.38829" stroke="white" stroke-width="1.48148"/>
<path d="M27.0214 8.5334C27.7216 9.40104 27.7216 10.599 27.0214 11.4666C25.8703 12.8929 24.0857 14.8567 21.8995 16.4583C19.7074 18.0644 17.1761 19.2593 14.5161 19.2593C11.8561 19.2593 9.32487 18.0644 7.13272 16.4583C4.9466 14.8567 3.16191 12.8929 2.01087 11.4666C1.31069 10.599 1.31069 9.40104 2.01087 8.5334C3.16191 7.10708 4.9466 5.1433 7.13272 3.54168C9.32487 1.93565 11.8561 0.740741 14.5161 0.740741C17.1761 0.740741 19.7074 1.93565 21.8995 3.54168C24.0857 5.1433 25.8703 7.10708 27.0214 8.5334Z" stroke="white" stroke-width="1.48148"/>
<circle cx="14.4447" cy="9.99999" r="3.33333" fill="white" class="nostroke" />
</svg>
