<svg width="342" height="342" viewBox="0 0 342 342" fill="none" xmlns="http://www.w3.org/2000/svg">
<mask id="path-1-outside-1" maskUnits="userSpaceOnUse" x="6" y="40" width="330" height="271" fill="black">
<rect fill="white" x="6" y="40" width="330" height="271"/>
<path fill-rule="evenodd" clip-rule="evenodd" d="M19 48L123.5 290L171 180L218.5 290L323 48H228L114 48H19Z"/>
</mask>
<path d="M123.5 290L116.155 293.171L123.5 310.18L130.844 293.171L123.5 290ZM19 48V40H6.83145L11.6555 51.1715L19 48ZM171 180L178.344 176.829L171 159.82L163.655 176.829L171 180ZM218.5 290L211.155 293.171L218.5 310.18L225.844 293.171L218.5 290ZM323 48L330.345 51.1715L335.169 40H323V48ZM228 48L228 56H228V48ZM114 48L114 40H114V48ZM130.844 286.828L26.3445 44.8285L11.6555 51.1715L116.155 293.171L130.844 286.828ZM163.655 176.829L116.155 286.828L130.844 293.171L178.344 183.171L163.655 176.829ZM225.844 286.828L178.344 176.829L163.655 183.171L211.155 293.171L225.844 286.828ZM315.656 44.8285L211.155 286.828L225.844 293.171L330.345 51.1715L315.656 44.8285ZM228 56H323V40H228V56ZM114 56L228 56L228 40L114 40L114 56ZM19 56H114V40H19V56Z" fill="white" mask="url(#path-1-outside-1)"/>
<path d="M123.5 290L19 48L228 48L123.5 290Z" fill="#C5CBD2"/>
<path d="M218.5 290L114 48L323 48L218.5 290Z" fill="#1A192B"/>
</svg>
