<svg width="20" height="20" viewBox="0 0 20 20" fill="none" xmlns="http://www.w3.org/2000/svg">
<path class="nostroke" d="M18.6586 5.10534C17.7643 3.53477 16.5514 2.29135 15.0194 1.37479C13.4871 0.458185 11.8144 0 9.99991 0C8.18569 0 6.51238 0.458325 4.98046 1.37479C3.4483 2.2913 2.23539 3.53477 1.34116 5.10534C0.447068 6.67587 0 8.39089 0 10.2504C0 12.484 0.635737 14.4926 1.90753 16.2766C3.17919 18.0607 4.82198 19.2952 6.83577 19.9803C7.07018 20.0249 7.24371 19.9936 7.35654 19.887C7.46941 19.7804 7.52578 19.6467 7.52578 19.4868C7.52578 19.4601 7.52354 19.2199 7.51921 18.766C7.51474 18.3122 7.51264 17.9162 7.51264 17.5783L7.21315 17.6315C7.0222 17.6673 6.78132 17.6825 6.49049 17.6782C6.19981 17.674 5.89804 17.6428 5.58559 17.5847C5.27302 17.5272 4.98228 17.3937 4.71317 17.1846C4.44419 16.9755 4.25324 16.7018 4.14036 16.3639L4.01016 16.0568C3.92337 15.8523 3.78674 15.6251 3.60008 15.3761C3.41342 15.1269 3.22466 14.958 3.03371 14.869L2.94254 14.8021C2.8818 14.7577 2.82543 14.704 2.7733 14.6418C2.72122 14.5796 2.68223 14.5173 2.65619 14.455C2.6301 14.3926 2.65172 14.3414 2.72127 14.3012C2.79081 14.261 2.9165 14.2416 3.09888 14.2416L3.35919 14.2814C3.53281 14.3171 3.74757 14.4236 4.00373 14.6017C4.25976 14.7796 4.47023 15.0109 4.63518 15.2956C4.83493 15.6605 5.07559 15.9385 5.35784 16.1299C5.63986 16.3212 5.92421 16.4167 6.21061 16.4167C6.49702 16.4167 6.74438 16.3945 6.95279 16.3502C7.16098 16.3057 7.35631 16.2388 7.53868 16.1499C7.61681 15.5535 7.82951 15.0953 8.17661 14.775C7.68189 14.7217 7.2371 14.6414 6.84202 14.5347C6.44717 14.4278 6.03914 14.2544 5.6182 14.0139C5.19704 13.7738 4.84766 13.4756 4.56997 13.1198C4.29223 12.7639 4.06429 12.2966 3.88648 11.7183C3.70857 11.1399 3.6196 10.4726 3.6196 9.71627C3.6196 8.63941 3.96255 7.72304 4.64832 6.96665C4.32707 6.15705 4.3574 5.24947 4.73939 4.244C4.99113 4.16382 5.36445 4.22399 5.85918 4.42412C6.354 4.62434 6.71628 4.79587 6.94641 4.93808C7.17653 5.08024 7.36092 5.20071 7.49983 5.29842C8.30727 5.06715 9.14052 4.95149 9.99982 4.95149C10.8591 4.95149 11.6925 5.06715 12.5 5.29842L12.9948 4.97823C13.3332 4.76459 13.7327 4.56881 14.1925 4.39083C14.6526 4.21295 15.0044 4.16396 15.2475 4.24414C15.638 5.24966 15.6728 6.15719 15.3515 6.96679C16.0372 7.72318 16.3803 8.63978 16.3803 9.71641C16.3803 10.4727 16.291 11.1421 16.1133 11.725C15.9355 12.308 15.7056 12.7749 15.4236 13.1265C15.1412 13.4781 14.7896 13.774 14.3687 14.0141C13.9476 14.2544 13.5395 14.4278 13.1446 14.5347C12.7496 14.6415 12.3048 14.7219 11.8101 14.7752C12.2613 15.1755 12.4869 15.8073 12.4869 16.6704V19.4864C12.4869 19.6464 12.5412 19.7799 12.6498 19.8867C12.7583 19.9932 12.9297 20.0246 13.1641 19.9799C15.1782 19.2949 16.8209 18.0603 18.0926 16.2762C19.364 14.4922 20 12.4837 20 10.25C19.9995 8.39075 19.5522 6.67587 18.6586 5.10534Z" fill="#F8F9F9"/>
</svg>
