<svg width="28" height="28" viewBox="0 0 22 17" fill="none" xmlns="http://www.w3.org/2000/svg">
<rect x="6.21875" y="0.5" width="9.62081" height="15.3397" rx="1.13397" stroke="#F8F9F9"/>
<mask id="path-2-inside-1" fill="white">
<rect x="8.16992" width="5.7189" height="2.45096" rx="0.816985"/>
</mask>
<rect class="nostroke" x="8.16992" width="5.7189" height="2.45096" rx="0.816985" stroke="#F8F9F9" stroke-width="2" mask="url(#path-2-inside-1)"/>
<path d="M3.89531 10.0226C3.70565 9.83295 3.5552 9.60779 3.45256 9.35999C3.34991 9.11218 3.29708 8.84659 3.29708 8.57837C3.29708 8.31015 3.34991 8.04455 3.45256 7.79675C3.5552 7.54895 3.70565 7.32379 3.89531 7.13413L4.34941 7.58823C4.21938 7.71826 4.11624 7.87262 4.04587 8.04251C3.9755 8.2124 3.93928 8.39448 3.93928 8.57837C3.93928 8.76225 3.9755 8.94434 4.04587 9.11423C4.11624 9.28412 4.21938 9.43848 4.34941 9.56851L3.89531 10.0226Z" class="nostroke" fill="#F8F9F9"/>
<path d="M18.1047 7.13413C18.2944 7.32379 18.4448 7.54895 18.5474 7.79675C18.6501 8.04456 18.7029 8.31015 18.7029 8.57837C18.7029 8.84659 18.6501 9.11218 18.5474 9.35999C18.4448 9.60779 18.2944 9.83295 18.1047 10.0226L17.6506 9.56851C17.7806 9.43848 17.8838 9.28412 17.9541 9.11423C18.0245 8.94434 18.0607 8.76225 18.0607 8.57837C18.0607 8.39448 18.0245 8.2124 17.9541 8.04251C17.8838 7.87262 17.7806 7.71826 17.6506 7.58823L18.1047 7.13413Z" class="nostroke" fill="#F8F9F9"/>
<path d="M2.84487 11.4232C2.47128 11.0496 2.17493 10.6061 1.97274 10.118C1.77056 9.62987 1.66649 9.1067 1.66649 8.57837C1.66649 8.05003 1.77056 7.52687 1.97274 7.03875C2.17493 6.55063 2.47128 6.10712 2.84487 5.73353L3.30299 6.19165C2.98956 6.50508 2.74094 6.87717 2.57131 7.28669C2.40169 7.6962 2.31438 8.13511 2.31438 8.57837C2.31438 9.02162 2.40169 9.46054 2.57131 9.87005C2.74094 10.2796 2.98956 10.6517 3.30299 10.9651L2.84487 11.4232Z" class="nostroke" fill="#F8F9F9"/>
<path d="M19.1546 5.73353C19.5282 6.10712 19.8246 6.55063 20.0268 7.03875C20.229 7.52687 20.333 8.05003 20.333 8.57837C20.333 9.10671 20.229 9.62987 20.0268 10.118C19.8246 10.6061 19.5282 11.0496 19.1546 11.4232L18.6965 10.9651C19.0099 10.6517 19.2586 10.2796 19.4282 9.87005C19.5978 9.46054 19.6851 9.02162 19.6851 8.57837C19.6851 8.13511 19.5978 7.6962 19.4282 7.28669C19.2586 6.87717 19.0099 6.50508 18.6965 6.19165L19.1546 5.73353Z" class="nostroke" fill="#F8F9F9"/>
</svg>
