<svg width="32" height="32" viewBox="0 0 24 17" fill="none" xmlns="http://www.w3.org/2000/svg">
<path d="M21 3.95833C21.4055 4.25085 21.4054 4.25096 21.4053 4.25107L21.4052 4.2513L21.4048 4.25178L21.4041 4.25279L21.4025 4.25504L21.3984 4.26043L21.3875 4.27484C21.3788 4.28605 21.3673 4.3005 21.3526 4.3182C21.3233 4.35358 21.2813 4.40201 21.2237 4.46358C21.1086 4.58667 20.9308 4.76278 20.6671 4.99275C20.4214 5.20711 20.2499 5.36805 20.1416 5.47352C20.1377 5.47735 20.1338 5.4811 20.1301 5.48478C20.1306 5.5866 20.1294 5.72037 20.1237 5.88107C20.1102 6.26173 20.0716 6.79576 19.9713 7.41567C19.7716 8.64957 19.322 10.2554 18.3096 11.6658C16.3297 14.424 13.7448 16.0968 10.0203 16.4455C8.16106 16.6196 6.62325 16.3481 5.54671 16.0309C5.00842 15.8723 4.58465 15.7021 4.29244 15.5697C4.14627 15.5035 4.03284 15.4467 3.95425 15.4055C3.91495 15.3848 3.88435 15.3681 3.8627 15.356L3.83697 15.3414L3.8292 15.3369L3.82659 15.3353L3.82561 15.3348L3.82521 15.3345C3.82502 15.3344 3.82485 15.3343 4.07984 14.9042L3.82485 15.3343L2.40719 14.4938L4.05275 14.405L4.05277 14.405L4.05279 14.405L4.05287 14.4049L4.05322 14.4049L4.0558 14.4048L4.0674 14.4041L4.11508 14.401C4.15723 14.3982 4.21932 14.3937 4.29724 14.3871C4.45332 14.374 4.67174 14.3528 4.9199 14.3207C5.42536 14.2553 6.01914 14.1487 6.46287 13.9863L6.464 13.9859C6.89448 13.8295 7.43562 13.5412 7.89953 13.2703C7.85761 13.2545 7.81506 13.2382 7.77205 13.2215C7.17842 12.9909 6.40256 12.6461 5.9584 12.2409L5.95694 12.2396C5.5711 11.8848 5.3218 11.5951 5.16494 11.3852C5.08652 11.2803 5.03129 11.1955 4.99372 11.1327C4.97494 11.1013 4.96059 11.0754 4.94997 11.0553C4.94466 11.0452 4.94029 11.0366 4.93677 11.0295L4.93212 11.0199L4.93025 11.0159L4.92942 11.0141L4.92904 11.0133L4.92885 11.0129C4.92876 11.0127 4.92867 11.0125 5.38293 10.8036L4.92867 11.0125L4.60692 10.313L5.37683 10.3036L5.58523 10.3011C5.40249 10.1789 5.21981 10.0495 5.04849 9.91658C4.75412 9.68824 4.46335 9.42707 4.27066 9.1551C3.9336 8.67939 3.74314 8.21163 3.63652 7.8621C3.58306 7.68685 3.55016 7.53962 3.53034 7.4335C3.52041 7.38038 3.51373 7.33737 3.50937 7.30608C3.50719 7.29042 3.5056 7.27768 3.50446 7.26805L3.5031 7.25595L3.50265 7.2517L3.50248 7.25002L3.50241 7.2493L3.50238 7.24897C3.50236 7.24881 3.50235 7.24866 4 7.20024L3.50235 7.24866L3.42388 6.44206L4.17997 6.73376L4.28567 6.77453C3.98088 6.22476 3.67168 5.54509 3.58189 4.90863C3.48133 4.19582 3.54424 3.63487 3.63951 3.24146C3.68699 3.04536 3.74219 2.89216 3.78819 2.78354C3.81118 2.72924 3.83188 2.68608 3.84816 2.65425C3.85631 2.63834 3.86335 2.62525 3.86904 2.61501L3.87651 2.60179L3.87943 2.59679L3.88067 2.59469L3.88123 2.59374L3.8815 2.59329C3.88163 2.59307 3.88176 2.59286 4.3108 2.84961L3.88176 2.59286L4.32416 1.85357L4.74423 2.60027C4.74429 2.60038 4.74436 2.60049 4.74443 2.6006C4.74637 2.60375 4.75108 2.61125 4.7589 2.62285C4.77452 2.64605 4.80263 2.68573 4.8459 2.7399C4.93239 2.84817 5.07993 3.01486 5.31034 3.2238C5.77094 3.64147 6.56536 4.23034 7.86957 4.85841C9.16 5.47985 10.3503 5.77208 11.2158 5.9088C11.524 5.95749 11.7905 5.98635 12.0047 6.00336C11.9711 5.6978 11.9568 5.30368 12.0148 4.87208C12.1495 3.8695 12.6784 2.67058 14.1927 1.94976C15.6848 1.23952 16.9676 1.48277 17.8654 1.90958C18.3085 2.12025 18.6564 2.37417 18.894 2.57523C18.9512 2.62369 19.0024 2.66935 19.0472 2.71094C19.201 2.66688 19.3873 2.61096 19.5429 2.55711C19.7035 2.50012 19.9055 2.41987 20.0718 2.35183C20.1544 2.31809 20.2264 2.28806 20.2777 2.2665L20.3376 2.24118L20.3535 2.23446L20.3574 2.23278L20.3583 2.23238L20.3585 2.2323L20.3585 2.23229L21 3.95833ZM21 3.95833L21.4055 4.25085L22.0561 3.34899L20.9497 3.46086L20.6668 3.48946M21 3.95833L20.6668 3.48946M20.6668 3.48946L20.9864 2.94512L21.7557 1.63462L20.3585 2.23228L20.6668 3.48946Z" stroke="#F8F9F9"/>
</svg>
