<svg width="20" height="20" viewBox="0 0 20 20" fill="none" xmlns="http://www.w3.org/2000/svg">
<path class="nostroke" d="M10 20C15.5224 20 20 15.5224 20 10C20 4.47755 15.5224 0 10 0C4.47755 0 0 4.47755 0 10C0 15.5224 4.47755 20 10 20ZM7.06122 7.43878C8.98367 8.4102 10.6082 8.35306 10.6082 8.35306C10.6082 8.35306 9.99184 6.20612 11.8959 5.2551C13.8 4.30408 15.1102 5.90816 15.1102 5.90816C15.1102 5.90816 15.4429 5.81633 15.6898 5.72653C15.9367 5.63469 16.2959 5.47347 16.2959 5.47347L15.7102 6.52041L16.6143 6.42449C16.6143 6.42449 16.502 6.58775 16.1408 6.91837C15.7796 7.24898 15.6306 7.42041 15.6306 7.42041C15.6306 7.42041 15.7592 10.0041 14.398 11.9939C13.0367 13.9837 11.2776 15.1776 8.72245 15.4286C6.16735 15.6796 4.50408 14.6449 4.50408 14.6449C4.50408 14.6449 5.62041 14.5816 6.33265 14.3082C7.0449 14.0367 8.06939 13.3184 8.06939 13.3184C8.06939 13.3184 6.61429 12.8694 6.0898 12.3673C5.56735 11.8633 5.43673 11.5653 5.43673 11.5653L6.87347 11.5469C6.87347 11.5469 5.36122 10.7449 4.93265 10.1102C4.50408 9.47551 4.44694 8.85918 4.44694 8.85918L5.55102 9.30612C5.55102 9.30612 4.63265 8.05714 4.50204 7.08571C4.37143 6.11429 4.66939 5.59184 4.66939 5.59184C4.66939 5.59184 5.13878 6.46735 7.06122 7.43878Z" fill="#F8F9F9"/>
</svg>
